<svg xmlns="http://www.w3.org/2000/svg" xmlns:xlink="http://www.w3.org/1999/xlink" width="500" zoomAndPan="magnify" viewBox="0 0 375 374.999991" height="500" preserveAspectRatio="xMidYMid meet" version="1.0"><defs><g/><clipPath id="1ef427c9dd"><path d="M 43 40 L 327 40 L 327 326 L 43 326 Z M 43 40 " clip-rule="nonzero"/></clipPath><clipPath id="ab66bbd225"><path d="M -14.859375 48.125 L 327.914062 -23.855469 L 397.273438 306.441406 L 54.5 378.417969 Z M -14.859375 48.125 " clip-rule="nonzero"/></clipPath><clipPath id="c4306c473b"><path d="M -14.859375 48.125 L 327.914062 -23.855469 L 397.273438 306.441406 L 54.5 378.417969 Z M -14.859375 48.125 " clip-rule="nonzero"/></clipPath><clipPath id="addd86f0bb"><path d="M 28 26 L 341 26 L 341 340 L 28 340 Z M 28 26 " clip-rule="nonzero"/></clipPath><clipPath id="47800e368d"><path d="M -14.859375 48.125 L 327.914062 -23.855469 L 397.273438 306.441406 L 54.5 378.417969 Z M -14.859375 48.125 " clip-rule="nonzero"/></clipPath><clipPath id="82eb846314"><path d="M -14.859375 48.125 L 327.914062 -23.855469 L 397.273438 306.441406 L 54.5 378.417969 Z M -14.859375 48.125 " clip-rule="nonzero"/></clipPath><clipPath id="af42f13443"><path d="M 13 10 L 357 10 L 357 355 L 13 355 Z M 13 10 " clip-rule="nonzero"/></clipPath><clipPath id="e98fd20c2b"><path d="M -14.859375 48.125 L 327.914062 -23.855469 L 397.273438 306.441406 L 54.5 378.417969 Z M -14.859375 48.125 " clip-rule="nonzero"/></clipPath><clipPath id="6280311579"><path d="M -14.859375 48.125 L 327.914062 -23.855469 L 397.273438 306.441406 L 54.5 378.417969 Z M -14.859375 48.125 " clip-rule="nonzero"/></clipPath><clipPath id="f3d87d20af"><path d="M 18 15 L 352 15 L 352 351 L 18 351 Z M 18 15 " clip-rule="nonzero"/></clipPath><clipPath id="0ff35143d3"><path d="M -14.859375 48.125 L 327.914062 -23.855469 L 397.273438 306.441406 L 54.5 378.417969 Z M -14.859375 48.125 " clip-rule="nonzero"/></clipPath><clipPath id="44cf21ec76"><path d="M -14.859375 48.125 L 327.914062 -23.855469 L 397.273438 306.441406 L 54.5 378.417969 Z M -14.859375 48.125 " clip-rule="nonzero"/></clipPath><clipPath id="0ebdce2bec"><path d="M 43 40 L 327 40 L 327 326 L 43 326 Z M 43 40 " clip-rule="nonzero"/></clipPath><clipPath id="a00e0bcebc"><path d="M -14.859375 48.125 L 327.914062 -23.855469 L 397.273438 306.441406 L 54.5 378.417969 Z M -14.859375 48.125 " clip-rule="nonzero"/></clipPath><clipPath id="f53b06ab5a"><path d="M -14.859375 48.125 L 327.914062 -23.855469 L 397.273438 306.441406 L 54.5 378.417969 Z M -14.859375 48.125 " clip-rule="nonzero"/></clipPath><clipPath id="e1d6c3b71d"><path d="M 28 26 L 341 26 L 341 340 L 28 340 Z M 28 26 " clip-rule="nonzero"/></clipPath><clipPath id="c243f27db2"><path d="M -14.859375 48.125 L 327.914062 -23.855469 L 397.273438 306.441406 L 54.5 378.417969 Z M -14.859375 48.125 " clip-rule="nonzero"/></clipPath><clipPath id="f28972e201"><path d="M -14.859375 48.125 L 327.914062 -23.855469 L 397.273438 306.441406 L 54.5 378.417969 Z M -14.859375 48.125 " clip-rule="nonzero"/></clipPath><clipPath id="6073871868"><path d="M 13 10 L 357 10 L 357 355 L 13 355 Z M 13 10 " clip-rule="nonzero"/></clipPath><clipPath id="7204b11e66"><path d="M -14.859375 48.125 L 327.914062 -23.855469 L 397.273438 306.441406 L 54.5 378.417969 Z M -14.859375 48.125 " clip-rule="nonzero"/></clipPath><clipPath id="9ac18ad9a5"><path d="M -14.859375 48.125 L 327.914062 -23.855469 L 397.273438 306.441406 L 54.5 378.417969 Z M -14.859375 48.125 " clip-rule="nonzero"/></clipPath><clipPath id="b3fc3f8a94"><path d="M 18 15 L 352 15 L 352 351 L 18 351 Z M 18 15 " clip-rule="nonzero"/></clipPath><clipPath id="fb9af05098"><path d="M -14.859375 48.125 L 327.914062 -23.855469 L 397.273438 306.441406 L 54.5 378.417969 Z M -14.859375 48.125 " clip-rule="nonzero"/></clipPath><clipPath id="7fbe8c1c5b"><path d="M -14.859375 48.125 L 327.914062 -23.855469 L 397.273438 306.441406 L 54.5 378.417969 Z M -14.859375 48.125 " clip-rule="nonzero"/></clipPath></defs><g fill="#000000" fill-opacity="1"><g transform="translate(185.390618, 193.124987)"><g><path d="M 2.109375 0.078125 C 1.804688 0.078125 1.566406 -0.00390625 1.390625 -0.171875 C 1.222656 -0.335938 1.140625 -0.5625 1.140625 -0.84375 C 1.140625 -1.113281 1.222656 -1.332031 1.390625 -1.5 C 1.566406 -1.675781 1.804688 -1.765625 2.109375 -1.765625 C 2.410156 -1.765625 2.644531 -1.679688 2.8125 -1.515625 C 2.988281 -1.347656 3.078125 -1.128906 3.078125 -0.859375 C 3.078125 -0.578125 2.988281 -0.347656 2.8125 -0.171875 C 2.632812 -0.00390625 2.398438 0.078125 2.109375 0.078125 Z M 2.109375 0.078125 "/></g></g></g><g fill="#000000" fill-opacity="1"><g transform="translate(163.608831, 182.953421)"><g><path d="M 2.109375 0.078125 C 1.804688 0.078125 1.566406 -0.00390625 1.390625 -0.171875 C 1.222656 -0.335938 1.140625 -0.5625 1.140625 -0.84375 C 1.140625 -1.113281 1.222656 -1.332031 1.390625 -1.5 C 1.566406 -1.675781 1.804688 -1.765625 2.109375 -1.765625 C 2.410156 -1.765625 2.644531 -1.679688 2.8125 -1.515625 C 2.988281 -1.347656 3.078125 -1.128906 3.078125 -0.859375 C 3.078125 -0.578125 2.988281 -0.347656 2.8125 -0.171875 C 2.632812 -0.00390625 2.398438 0.078125 2.109375 0.078125 Z M 2.109375 0.078125 "/></g></g></g><g clip-path="url(#1ef427c9dd)"><g clip-path="url(#ab66bbd225)"><g clip-path="url(#c4306c473b)"><path fill="#fffced" d="M 307.835938 295.167969 C 301.164062 296.570312 290.660156 291.914062 287.167969 290.394531 L 286.710938 290.179688 C 271.824219 283.679688 249.433594 275.578125 216.242188 264.828125 C 213.816406 264.003906 211.242188 263.929688 208.789062 264.445312 C 206.335938 264.960938 204.027344 266.164062 202.039062 267.910156 C 180.25 287.542969 165.578125 301.585938 155.65625 312.375 L 155.324219 312.75 C 152.738281 315.546875 144.894531 324.058594 138.324219 325.4375 C 137.539062 325.601562 136.832031 325.648438 136.199219 325.578125 C 135.453125 325.425781 134.585938 325.199219 133.992188 324.8125 C 131.953125 323.394531 129.472656 318.898438 129.007812 305.472656 L 129.046875 305.160156 C 128.5 289.398438 126.894531 265.152344 124.796875 235.171875 C 124.457031 230.632812 122.039062 226.429688 118.144531 223.96875 C 92.683594 207.601562 74.726562 196.726562 61.511719 189.871094 L 61.054688 189.660156 C 47.382812 182.597656 44.070312 177.554688 43.648438 174.570312 C 43.542969 173.570312 43.75 172.605469 43.785156 172.289062 C 44.507812 169.882812 48.152344 166.25 61.148438 162.292969 L 61.441406 162.230469 C 77.023438 157.421875 101.085938 149.09375 128.65625 139.410156 C 133.144531 137.855469 136.667969 134.144531 137.859375 129.589844 C 146.003906 99.097656 151.089844 77.957031 153.679688 62.96875 L 153.792969 62.535156 C 156.4375 47.332031 160.265625 42.636719 162.964844 41.351562 C 163.339844 41.171875 163.828125 41.070312 164.222656 40.988281 C 164.417969 40.945312 164.808594 40.863281 165.222656 40.878906 C 167.699219 40.972656 172.1875 43.308594 179.941406 54.382812 L 180.101562 54.65625 C 189.210938 67.800781 204.347656 88.179688 221.613281 111.390625 C 224.601562 115.371094 229.480469 117.625 234.410156 117.203125 C 263.523438 114.878906 289.003906 112.808594 304.8125 111.023438 L 305.105469 110.960938 C 318.617188 109.457031 323.316406 111.339844 325.023438 113.128906 C 325.28125 113.382812 325.859375 114.183594 326.066406 115.164062 C 326.878906 118.066406 325.894531 124.113281 316.21875 136.078125 L 315.886719 136.457031 C 307.4375 146.9375 296.359375 162.476562 281.941406 184.042969 C 279.363281 187.863281 278.835938 192.683594 280.351562 196.976562 C 291.863281 228.871094 301.742188 256.398438 308.269531 272.851562 L 308.332031 273.144531 C 313.308594 285.621094 312.84375 290.738281 311.546875 292.851562 C 311.238281 293.328125 310.554688 293.984375 309.832031 294.441406 C 309.285156 294.761719 308.621094 295.003906 307.835938 295.167969 Z M 307.835938 295.167969 " fill-opacity="1" fill-rule="nonzero"/></g></g></g><g clip-path="url(#addd86f0bb)"><g clip-path="url(#47800e368d)"><g clip-path="url(#82eb846314)"><path fill="#ffbdb1" d="M 168.464844 63.140625 C 177.734375 76.558594 192.828125 96.742188 210.097656 119.953125 C 216.09375 128.015625 225.707031 132.347656 235.6875 131.582031 C 265.707031 129.171875 290.085938 127.226562 306.089844 125.402344 C 305.78125 125.878906 305.351562 126.273438 304.941406 126.769531 L 304.613281 127.148438 C 295.753906 138.125 284.753906 153.542969 269.867188 175.824219 C 264.710938 183.460938 263.566406 193.125 266.714844 201.785156 C 278.109375 233.605469 287.964844 261.03125 294.652344 277.757812 C 294.101562 277.566406 293.527344 277.277344 292.976562 277.085938 L 292.523438 276.875 C 277.179688 270.160156 254.355469 261.945312 220.710938 250.984375 C 215.761719 249.359375 210.609375 249.210938 205.800781 250.222656 C 200.898438 251.25 196.160156 253.578125 192.28125 257.054688 C 170.140625 276.964844 155.140625 291.382812 144.964844 302.429688 L 144.632812 302.808594 C 144.226562 303.304688 143.796875 303.699219 143.367188 304.097656 C 142.78125 288.140625 141.171875 263.894531 139.117188 234.109375 C 138.519531 224.914062 133.605469 216.625 125.910156 211.6875 C 100.074219 194.988281 81.683594 183.996094 68.011719 176.933594 L 67.558594 176.722656 C 66.984375 176.429688 66.507812 176.121094 65.957031 175.929688 C 81.714844 170.980469 105.777344 162.652344 133.269531 153.089844 C 142.34375 149.953125 149.191406 142.574219 151.757812 133.332031 C 160.25 102.558594 165.449219 80.984375 168.132812 65.464844 L 168.246094 65.03125 C 168.199219 64.324219 168.273438 63.695312 168.464844 63.140625 M 161.3125 26.644531 C 159.9375 26.933594 158.390625 27.359375 156.804688 28.101562 C 143.671875 34.34375 140.496094 53.855469 139.417969 60.433594 C 136.792969 75.734375 131.339844 97.570312 123.6875 125.5 C 94.394531 135.75 71.664062 143.59375 56.941406 148.121094 C 50.316406 150.226562 33.832031 155.125 29.78125 167.546875 C 29.53125 168.316406 28.425781 171.828125 29.058594 176.304688 C 31.066406 190.734375 48.804688 199.609375 54.652344 202.578125 C 68.085938 209.488281 86.65625 220.851562 110.117188 236 C 112.21875 266.492188 113.824219 290.226562 114.363281 305.476562 C 114.585938 312.394531 115.027344 329.613281 126.046875 336.722656 C 126.757812 337.1875 129.824219 339.105469 134.253906 339.710938 C 136.671875 340.023438 138.992188 339.84375 141.25 339.367188 C 152.726562 336.957031 162.609375 325.972656 166.363281 321.90625 C 176.363281 310.996094 191.660156 296.519531 211.714844 278.375 C 242.28125 288.347656 265.617188 296.554688 280.859375 303.292969 C 285.933594 305.503906 299.304688 311.609375 310.78125 309.195312 C 313.039062 308.722656 315.328125 307.933594 317.421875 306.675781 C 321.234375 304.339844 323.269531 301.351562 323.734375 300.640625 C 330.863281 289.71875 324.339844 273.777344 321.839844 267.234375 C 315.554688 251.449219 306.222656 225.550781 294.125 191.832031 C 307.59375 171.589844 318.652344 155.953125 327.277344 145.332031 C 331.414062 140.160156 344.085938 124.902344 340.140625 110.980469 C 338.917969 106.628906 336.492188 103.859375 335.957031 103.253906 C 327.253906 93.507812 310.167969 95.558594 303.277344 96.390625 C 287.976562 98.171875 264.109375 100.109375 233.386719 102.566406 C 215.003906 77.953125 200.839844 58.800781 192.148438 46.183594 C 188.179688 40.460938 178.550781 26.300781 165.417969 26.191406 C 164.808594 26.214844 163.273438 26.230469 161.3125 26.644531 Z M 161.3125 26.644531 " fill-opacity="1" fill-rule="nonzero"/></g></g></g><g clip-path="url(#af42f13443)"><g clip-path="url(#e98fd20c2b)"><g clip-path="url(#6280311579)"><path fill="#ffa096" d="M 161.3125 26.644531 C 163.371094 26.210938 164.90625 26.195312 165.417969 26.191406 C 178.550781 26.300781 188.203125 40.558594 192.148438 46.183594 C 200.839844 58.800781 215.101562 77.929688 233.363281 102.46875 C 264.089844 100.011719 287.957031 98.074219 303.277344 96.390625 C 310.167969 95.558594 327.253906 93.507812 335.957031 103.253906 C 336.492188 103.859375 338.917969 106.628906 340.140625 110.980469 C 344.109375 125 331.4375 140.257812 327.277344 145.332031 C 318.652344 155.953125 307.613281 171.6875 294.125 191.832031 C 306.222656 225.550781 315.554688 251.449219 321.839844 267.234375 C 324.417969 273.660156 330.941406 289.601562 323.734375 300.640625 C 323.269531 301.351562 321.234375 304.339844 317.421875 306.675781 C 315.328125 307.933594 313.136719 308.703125 310.78125 309.199219 C 299.304688 311.609375 285.835938 305.523438 280.859375 303.292969 C 265.617188 296.554688 242.28125 288.347656 211.714844 278.375 C 191.636719 296.421875 176.363281 310.996094 166.363281 321.90625 C 162.609375 325.972656 152.824219 336.9375 141.25 339.367188 C 138.992188 339.84375 136.574219 340.042969 134.253906 339.710938 C 129.824219 339.105469 126.738281 337.089844 126.046875 336.722656 C 115.125 329.59375 114.683594 312.375 114.363281 305.476562 C 113.824219 290.226562 112.21875 266.492188 110.117188 236 C 86.65625 220.851562 68.109375 209.585938 54.652344 202.578125 C 48.785156 199.511719 31.042969 190.636719 29.058594 176.304688 C 28.425781 171.828125 29.53125 168.316406 29.78125 167.546875 C 33.832031 155.125 50.296875 150.128906 56.941406 148.121094 C 71.640625 143.496094 94.371094 135.648438 123.6875 125.5 C 131.34375 97.570312 136.792969 75.734375 139.421875 60.433594 C 140.496094 53.855469 143.671875 34.34375 156.804688 28.101562 C 158.390625 27.359375 159.9375 26.933594 161.3125 26.644531 M 158.222656 11.929688 C 155.476562 12.503906 152.886719 13.355469 150.460938 14.480469 C 130.519531 23.890625 126.179688 49.078125 124.742188 57.367188 L 124.628906 57.800781 C 122.472656 70.445312 118.027344 88.789062 111.308594 113.863281 C 87.148438 122.214844 66.238281 129.472656 52.476562 133.691406 L 52.183594 133.753906 C 43.914062 136.3125 21.898438 143.1875 15.484375 162.867188 C 14.527344 165.628906 13.164062 171.34375 14.117188 178.316406 C 17.058594 200.128906 39.800781 211.84375 47.269531 215.703125 L 47.722656 215.917969 C 58.867188 221.667969 74.566406 231.074219 95.613281 244.476562 C 97.4375 270.722656 98.800781 291.84375 99.289062 305.878906 L 99.25 306.191406 C 99.53125 314.839844 100.382812 337.914062 117.710938 349.226562 C 117.710938 349.226562 117.832031 349.304688 117.832031 349.304688 C 122.203125 352.074219 127.09375 353.914062 132.253906 354.574219 C 136.246094 355.066406 140.316406 354.929688 144.339844 354.082031 C 160.230469 350.746094 171.984375 337.933594 177.082031 332.457031 L 177.410156 332.082031 C 185.582031 323.195312 198.011719 311.164062 215.398438 295.425781 C 243.125 304.558594 262.203125 311.511719 274.9375 317.03125 L 275.390625 317.242188 C 282.164062 320.226562 298.175781 327.207031 314.066406 323.871094 C 318.1875 323.007812 321.96875 321.496094 325.328125 319.457031 C 330.882812 316.140625 334.378906 311.820312 336.414062 308.832031 C 336.414062 308.832031 336.492188 308.714844 336.492188 308.714844 C 347.808594 291.382812 339.207031 269.9375 336.082031 261.890625 L 335.921875 261.617188 C 330.058594 246.867188 321.234375 222.398438 310.933594 193.832031 C 322.816406 176.28125 331.992188 163.394531 339.066406 154.636719 L 339.394531 154.257812 C 342 151.050781 346.699219 145.144531 350.539062 137.578125 C 356.019531 126.59375 357.410156 116.164062 354.6875 106.59375 C 352.753906 99.832031 349.230469 95.242188 347.222656 93.003906 C 333.429688 77.5625 310.511719 80.125 301.910156 81.109375 L 301.617188 81.171875 C 287.710938 82.761719 265.867188 84.582031 240.488281 86.632812 C 225.390625 66.449219 212.484375 48.878906 204.527344 37.335938 L 204.367188 37.0625 C 199.386719 29.914062 186.285156 10.953125 165.5625 10.796875 C 165.5625 10.796875 165.464844 10.816406 165.464844 10.816406 C 162.972656 11.136719 160.574219 11.433594 158.222656 11.929688 Z M 158.222656 11.929688 " fill-opacity="1" fill-rule="nonzero"/></g></g></g><g clip-path="url(#f3d87d20af)"><g clip-path="url(#0ff35143d3)"><g clip-path="url(#44cf21ec76)"><path fill="#ffa89e" d="M 312.886719 319.714844 C 298.464844 322.742188 283.460938 316.164062 277.023438 313.316406 L 276.570312 313.101562 C 263.363281 307.273438 243.417969 300.089844 214.148438 290.464844 C 195.75 307.234375 182.542969 319.941406 174.042969 329.203125 L 173.710938 329.582031 C 167.875 335.929688 152.269531 352.828125 132.78125 350.261719 C 128.351562 349.65625 124.03125 348.105469 120.253906 345.722656 C 120.253906 345.722656 120.253906 345.722656 120.132812 345.644531 C 104.800781 335.550781 104.007812 314.207031 103.753906 306.167969 L 103.789062 305.855469 C 103.316406 291.40625 101.847656 269.285156 100.011719 242.015625 C 77.875 227.816406 61.367188 217.96875 49.867188 211.984375 L 49.414062 211.773438 C 41.707031 207.757812 21.277344 197.296875 18.710938 177.757812 C 17.847656 171.691406 19.058594 166.726562 19.882812 164.300781 C 25.53125 146.828125 45.917969 140.5 53.621094 138.164062 L 53.917969 138.101562 C 68.148438 133.679688 89.917969 126.136719 115.117188 117.363281 C 122.273438 90.972656 126.945312 71.757812 129.199219 58.582031 L 129.3125 58.148438 C 130.804688 49.644531 134.636719 26.917969 152.542969 18.546875 C 156.558594 16.683594 161.148438 15.617188 165.550781 15.613281 C 184.011719 15.730469 196.191406 33.25 200.757812 39.871094 L 200.917969 40.144531 C 209.269531 52.113281 222.734375 70.386719 238.449219 91.566406 C 264.953125 89.484375 287.796875 87.554688 302.210938 85.964844 L 302.507812 85.902344 C 310.519531 85.039062 331.730469 82.632812 343.910156 96.257812 C 345.542969 98.167969 348.628906 102.128906 350.375 108.011719 C 355.785156 126.953125 341.308594 144.84375 335.949219 151.5 L 335.617188 151.875 C 328.214844 161.011719 318.476562 174.628906 305.992188 193.230469 C 316.597656 222.757812 325.707031 248.089844 331.769531 263.304688 L 331.929688 263.582031 C 334.929688 271.042969 342.789062 290.902344 332.8125 306.3125 C 332.8125 306.3125 332.8125 306.3125 332.734375 306.429688 C 331.027344 309.042969 327.917969 312.769531 323.089844 315.625 C 319.652344 317.78125 316.320312 318.992188 312.886719 319.714844 Z M 209.496094 268.292969 C 211.261719 267.921875 213.128906 268.042969 214.882812 268.59375 C 247.976562 279.367188 270.25 287.390625 285.015625 293.816406 L 285.472656 294.027344 C 304.425781 302.339844 310.054688 298.902344 311.871094 297.804688 C 313.511719 296.84375 314.464844 295.519531 314.851562 294.925781 C 318.859375 288.652344 313.90625 276.277344 312.089844 271.535156 L 311.929688 271.261719 C 305.425781 254.910156 295.546875 227.382812 284.054688 195.582031 C 282.886719 192.449219 283.382812 188.964844 285.164062 186.234375 C 299.507812 164.785156 310.488281 149.265625 318.859375 138.90625 L 319.191406 138.527344 C 332.210938 122.480469 330.359375 116.105469 329.828125 114.066406 C 329.179688 111.949219 327.964844 110.566406 327.945312 110.46875 C 322.976562 104.855469 309.585938 106.4375 304.578125 106.976562 L 304.28125 107.039062 C 288.472656 108.820312 264.210938 110.84375 234.078125 113.175781 C 230.441406 113.425781 226.949219 111.90625 224.796875 108.980469 C 207.527344 85.769531 192.414062 65.488281 183.300781 52.34375 L 183.140625 52.070312 C 180.230469 47.96875 172.578125 36.875 165.183594 36.789062 C 164.769531 36.773438 163.042969 36.832031 161.183594 37.734375 C 153.253906 41.445312 150.652344 56.84375 149.753906 61.847656 L 149.640625 62.28125 C 147.03125 77.167969 142.023438 98.195312 133.699219 128.3125 C 132.769531 131.683594 130.257812 134.363281 127.007812 135.457031 C 99.417969 145.039062 75.355469 153.367188 59.871094 158.15625 L 59.574219 158.21875 C 54.773438 159.738281 41.875 163.675781 39.582031 170.816406 C 39.507812 170.933594 38.953125 172.691406 39.308594 174.867188 C 40.511719 183.527344 54.300781 190.667969 58.886719 192.984375 L 59.339844 193.195312 C 72.4375 199.972656 90.375 210.75 115.714844 227.039062 C 118.542969 228.804688 120.300781 231.8125 120.492188 235.152344 C 122.585938 265.132812 124.175781 289.28125 124.699219 304.945312 L 124.761719 305.238281 C 124.90625 310.332031 125.449219 323.632812 131.640625 327.761719 C 132.808594 328.441406 134.148438 328.976562 135.527344 329.199219 C 144.167969 330.355469 154.675781 318.929688 158.179688 315.121094 L 158.507812 314.746094 C 168.257812 304.09375 182.925781 290.054688 204.640625 270.542969 C 206.066406 269.523438 207.730469 268.664062 209.496094 268.292969 Z M 327.199219 145.449219 Z M 327.199219 145.449219 " fill-opacity="1" fill-rule="nonzero"/></g></g></g><g clip-path="url(#0ebdce2bec)"><g clip-path="url(#a00e0bcebc)"><g clip-path="url(#f53b06ab5a)"><path fill="#fffced" d="M 307.835938 295.167969 C 301.164062 296.570312 290.660156 291.914062 287.167969 290.394531 L 286.710938 290.179688 C 271.824219 283.679688 249.433594 275.578125 216.242188 264.828125 C 213.816406 264.003906 211.242188 263.929688 208.789062 264.445312 C 206.335938 264.960938 204.027344 266.164062 202.039062 267.910156 C 180.25 287.542969 165.578125 301.585938 155.65625 312.375 L 155.324219 312.75 C 152.738281 315.546875 144.894531 324.058594 138.324219 325.4375 C 137.539062 325.601562 136.832031 325.648438 136.199219 325.578125 C 135.453125 325.425781 134.585938 325.199219 133.992188 324.8125 C 131.953125 323.394531 129.472656 318.898438 129.007812 305.472656 L 129.046875 305.160156 C 128.5 289.398438 126.894531 265.152344 124.796875 235.171875 C 124.457031 230.632812 122.039062 226.429688 118.144531 223.96875 C 92.683594 207.601562 74.726562 196.726562 61.511719 189.871094 L 61.054688 189.660156 C 47.382812 182.597656 44.070312 177.554688 43.648438 174.570312 C 43.542969 173.570312 43.75 172.605469 43.785156 172.289062 C 44.507812 169.882812 48.152344 166.25 61.148438 162.292969 L 61.441406 162.230469 C 77.023438 157.421875 101.085938 149.09375 128.65625 139.410156 C 133.144531 137.855469 136.667969 134.144531 137.859375 129.589844 C 146.003906 99.097656 151.089844 77.957031 153.679688 62.96875 L 153.792969 62.535156 C 156.4375 47.332031 160.265625 42.636719 162.964844 41.351562 C 163.339844 41.171875 163.828125 41.070312 164.222656 40.988281 C 164.417969 40.945312 164.808594 40.863281 165.222656 40.878906 C 167.699219 40.972656 172.1875 43.308594 179.941406 54.382812 L 180.101562 54.65625 C 189.210938 67.800781 204.347656 88.179688 221.613281 111.390625 C 224.601562 115.371094 229.480469 117.625 234.410156 117.203125 C 263.523438 114.878906 289.003906 112.808594 304.8125 111.023438 L 305.105469 110.960938 C 318.617188 109.457031 323.316406 111.339844 325.023438 113.128906 C 325.28125 113.382812 325.859375 114.183594 326.066406 115.164062 C 326.878906 118.066406 325.894531 124.113281 316.21875 136.078125 L 315.886719 136.457031 C 307.4375 146.9375 296.359375 162.476562 281.941406 184.042969 C 279.363281 187.863281 278.835938 192.683594 280.351562 196.976562 C 291.863281 228.871094 301.742188 256.398438 308.269531 272.851562 L 308.332031 273.144531 C 313.308594 285.621094 312.84375 290.738281 311.546875 292.851562 C 311.238281 293.328125 310.554688 293.984375 309.832031 294.441406 C 309.285156 294.761719 308.621094 295.003906 307.835938 295.167969 Z M 307.835938 295.167969 " fill-opacity="1" fill-rule="nonzero"/></g></g></g><g clip-path="url(#e1d6c3b71d)"><g clip-path="url(#c243f27db2)"><g clip-path="url(#f28972e201)"><path fill="#ffbdb1" d="M 168.464844 63.140625 C 177.734375 76.558594 192.828125 96.742188 210.097656 119.953125 C 216.09375 128.015625 225.707031 132.347656 235.6875 131.582031 C 265.707031 129.171875 290.085938 127.226562 306.089844 125.402344 C 305.78125 125.878906 305.351562 126.273438 304.941406 126.769531 L 304.613281 127.148438 C 295.753906 138.125 284.753906 153.542969 269.867188 175.824219 C 264.710938 183.460938 263.566406 193.125 266.714844 201.785156 C 278.109375 233.605469 287.964844 261.03125 294.652344 277.757812 C 294.101562 277.566406 293.527344 277.277344 292.976562 277.085938 L 292.523438 276.875 C 277.179688 270.160156 254.355469 261.945312 220.710938 250.984375 C 215.761719 249.359375 210.609375 249.210938 205.800781 250.222656 C 200.898438 251.25 196.160156 253.578125 192.28125 257.054688 C 170.140625 276.964844 155.140625 291.382812 144.964844 302.429688 L 144.632812 302.808594 C 144.226562 303.304688 143.796875 303.699219 143.367188 304.097656 C 142.78125 288.140625 141.171875 263.894531 139.117188 234.109375 C 138.519531 224.914062 133.605469 216.625 125.910156 211.6875 C 100.074219 194.988281 81.683594 183.996094 68.011719 176.933594 L 67.558594 176.722656 C 66.984375 176.429688 66.507812 176.121094 65.957031 175.929688 C 81.714844 170.980469 105.777344 162.652344 133.269531 153.089844 C 142.34375 149.953125 149.191406 142.574219 151.757812 133.332031 C 160.25 102.558594 165.449219 80.984375 168.132812 65.464844 L 168.246094 65.03125 C 168.199219 64.324219 168.273438 63.695312 168.464844 63.140625 M 161.3125 26.644531 C 159.9375 26.933594 158.390625 27.359375 156.804688 28.101562 C 143.671875 34.34375 140.496094 53.855469 139.417969 60.433594 C 136.792969 75.734375 131.339844 97.570312 123.6875 125.5 C 94.394531 135.75 71.664062 143.59375 56.941406 148.121094 C 50.316406 150.226562 33.832031 155.125 29.78125 167.546875 C 29.53125 168.316406 28.425781 171.828125 29.058594 176.304688 C 31.066406 190.734375 48.804688 199.609375 54.652344 202.578125 C 68.085938 209.488281 86.65625 220.851562 110.117188 236 C 112.21875 266.492188 113.824219 290.226562 114.363281 305.476562 C 114.585938 312.394531 115.027344 329.613281 126.046875 336.722656 C 126.757812 337.1875 129.824219 339.105469 134.253906 339.710938 C 136.671875 340.023438 138.992188 339.84375 141.25 339.367188 C 152.726562 336.957031 162.609375 325.972656 166.363281 321.90625 C 176.363281 310.996094 191.660156 296.519531 211.714844 278.375 C 242.28125 288.347656 265.617188 296.554688 280.859375 303.292969 C 285.933594 305.503906 299.304688 311.609375 310.78125 309.195312 C 313.039062 308.722656 315.328125 307.933594 317.421875 306.675781 C 321.234375 304.339844 323.269531 301.351562 323.734375 300.640625 C 330.863281 289.71875 324.339844 273.777344 321.839844 267.234375 C 315.554688 251.449219 306.222656 225.550781 294.125 191.832031 C 307.59375 171.589844 318.652344 155.953125 327.277344 145.332031 C 331.414062 140.160156 344.085938 124.902344 340.140625 110.980469 C 338.917969 106.628906 336.492188 103.859375 335.957031 103.253906 C 327.253906 93.507812 310.167969 95.558594 303.277344 96.390625 C 287.976562 98.171875 264.109375 100.109375 233.386719 102.566406 C 215.003906 77.953125 200.839844 58.800781 192.148438 46.183594 C 188.179688 40.460938 178.550781 26.300781 165.417969 26.191406 C 164.808594 26.214844 163.273438 26.230469 161.3125 26.644531 Z M 161.3125 26.644531 " fill-opacity="1" fill-rule="nonzero"/></g></g></g><g clip-path="url(#6073871868)"><g clip-path="url(#7204b11e66)"><g clip-path="url(#9ac18ad9a5)"><path fill="#ffa096" d="M 161.3125 26.644531 C 163.371094 26.210938 164.90625 26.195312 165.417969 26.191406 C 178.550781 26.300781 188.203125 40.558594 192.148438 46.183594 C 200.839844 58.800781 215.101562 77.929688 233.363281 102.46875 C 264.089844 100.011719 287.957031 98.074219 303.277344 96.390625 C 310.167969 95.558594 327.253906 93.507812 335.957031 103.253906 C 336.492188 103.859375 338.917969 106.628906 340.140625 110.980469 C 344.109375 125 331.4375 140.257812 327.277344 145.332031 C 318.652344 155.953125 307.613281 171.6875 294.125 191.832031 C 306.222656 225.550781 315.554688 251.449219 321.839844 267.234375 C 324.417969 273.660156 330.941406 289.601562 323.734375 300.640625 C 323.269531 301.351562 321.234375 304.339844 317.421875 306.675781 C 315.328125 307.933594 313.136719 308.703125 310.78125 309.199219 C 299.304688 311.609375 285.835938 305.523438 280.859375 303.292969 C 265.617188 296.554688 242.28125 288.347656 211.714844 278.375 C 191.636719 296.421875 176.363281 310.996094 166.363281 321.90625 C 162.609375 325.972656 152.824219 336.9375 141.25 339.367188 C 138.992188 339.84375 136.574219 340.042969 134.253906 339.710938 C 129.824219 339.105469 126.738281 337.089844 126.046875 336.722656 C 115.125 329.59375 114.683594 312.375 114.363281 305.476562 C 113.824219 290.226562 112.21875 266.492188 110.117188 236 C 86.65625 220.851562 68.109375 209.585938 54.652344 202.578125 C 48.785156 199.511719 31.042969 190.636719 29.058594 176.304688 C 28.425781 171.828125 29.53125 168.316406 29.78125 167.546875 C 33.832031 155.125 50.296875 150.128906 56.941406 148.121094 C 71.640625 143.496094 94.371094 135.648438 123.6875 125.5 C 131.34375 97.570312 136.792969 75.734375 139.421875 60.433594 C 140.496094 53.855469 143.671875 34.34375 156.804688 28.101562 C 158.390625 27.359375 159.9375 26.933594 161.3125 26.644531 M 158.222656 11.929688 C 155.476562 12.503906 152.886719 13.355469 150.460938 14.480469 C 130.519531 23.890625 126.179688 49.078125 124.742188 57.367188 L 124.628906 57.800781 C 122.472656 70.445312 118.027344 88.789062 111.308594 113.863281 C 87.148438 122.214844 66.238281 129.472656 52.476562 133.691406 L 52.183594 133.753906 C 43.914062 136.3125 21.898438 143.1875 15.484375 162.867188 C 14.527344 165.628906 13.164062 171.34375 14.117188 178.316406 C 17.058594 200.128906 39.800781 211.84375 47.269531 215.703125 L 47.722656 215.917969 C 58.867188 221.667969 74.566406 231.074219 95.613281 244.476562 C 97.4375 270.722656 98.800781 291.84375 99.289062 305.878906 L 99.25 306.191406 C 99.53125 314.839844 100.382812 337.914062 117.710938 349.226562 C 117.710938 349.226562 117.832031 349.304688 117.832031 349.304688 C 122.203125 352.074219 127.09375 353.914062 132.253906 354.574219 C 136.246094 355.066406 140.316406 354.929688 144.339844 354.082031 C 160.230469 350.746094 171.984375 337.933594 177.082031 332.457031 L 177.410156 332.082031 C 185.582031 323.195312 198.011719 311.164062 215.398438 295.425781 C 243.125 304.558594 262.203125 311.511719 274.9375 317.03125 L 275.390625 317.242188 C 282.164062 320.226562 298.175781 327.207031 314.066406 323.871094 C 318.1875 323.007812 321.96875 321.496094 325.328125 319.457031 C 330.882812 316.140625 334.378906 311.820312 336.414062 308.832031 C 336.414062 308.832031 336.492188 308.714844 336.492188 308.714844 C 347.808594 291.382812 339.207031 269.9375 336.082031 261.890625 L 335.921875 261.617188 C 330.058594 246.867188 321.234375 222.398438 310.933594 193.832031 C 322.816406 176.28125 331.992188 163.394531 339.066406 154.636719 L 339.394531 154.257812 C 342 151.050781 346.699219 145.144531 350.539062 137.578125 C 356.019531 126.59375 357.410156 116.164062 354.6875 106.59375 C 352.753906 99.832031 349.230469 95.242188 347.222656 93.003906 C 333.429688 77.5625 310.511719 80.125 301.910156 81.109375 L 301.617188 81.171875 C 287.710938 82.761719 265.867188 84.582031 240.488281 86.632812 C 225.390625 66.449219 212.484375 48.878906 204.527344 37.335938 L 204.367188 37.0625 C 199.386719 29.914062 186.285156 10.953125 165.5625 10.796875 C 165.5625 10.796875 165.464844 10.816406 165.464844 10.816406 C 162.972656 11.136719 160.574219 11.433594 158.222656 11.929688 Z M 158.222656 11.929688 " fill-opacity="1" fill-rule="nonzero"/></g></g></g><g clip-path="url(#b3fc3f8a94)"><g clip-path="url(#fb9af05098)"><g clip-path="url(#7fbe8c1c5b)"><path fill="#ffa89e" d="M 312.886719 319.714844 C 298.464844 322.742188 283.460938 316.164062 277.023438 313.316406 L 276.570312 313.101562 C 263.363281 307.273438 243.417969 300.089844 214.148438 290.464844 C 195.75 307.234375 182.542969 319.941406 174.042969 329.203125 L 173.710938 329.582031 C 167.875 335.929688 152.269531 352.828125 132.78125 350.261719 C 128.351562 349.65625 124.03125 348.105469 120.253906 345.722656 C 120.253906 345.722656 120.253906 345.722656 120.132812 345.644531 C 104.800781 335.550781 104.007812 314.207031 103.753906 306.167969 L 103.789062 305.855469 C 103.316406 291.40625 101.847656 269.285156 100.011719 242.015625 C 77.875 227.816406 61.367188 217.96875 49.867188 211.984375 L 49.414062 211.773438 C 41.707031 207.757812 21.277344 197.296875 18.710938 177.757812 C 17.847656 171.691406 19.058594 166.726562 19.882812 164.300781 C 25.53125 146.828125 45.917969 140.5 53.621094 138.164062 L 53.917969 138.101562 C 68.148438 133.679688 89.917969 126.136719 115.117188 117.363281 C 122.273438 90.972656 126.945312 71.757812 129.199219 58.582031 L 129.3125 58.148438 C 130.804688 49.644531 134.636719 26.917969 152.542969 18.546875 C 156.558594 16.683594 161.148438 15.617188 165.550781 15.613281 C 184.011719 15.730469 196.191406 33.25 200.757812 39.871094 L 200.917969 40.144531 C 209.269531 52.113281 222.734375 70.386719 238.449219 91.566406 C 264.953125 89.484375 287.796875 87.554688 302.210938 85.964844 L 302.507812 85.902344 C 310.519531 85.039062 331.730469 82.632812 343.910156 96.257812 C 345.542969 98.167969 348.628906 102.128906 350.375 108.011719 C 355.785156 126.953125 341.308594 144.84375 335.949219 151.5 L 335.617188 151.875 C 328.214844 161.011719 318.476562 174.628906 305.992188 193.230469 C 316.597656 222.757812 325.707031 248.089844 331.769531 263.304688 L 331.929688 263.582031 C 334.929688 271.042969 342.789062 290.902344 332.8125 306.3125 C 332.8125 306.3125 332.8125 306.3125 332.734375 306.429688 C 331.027344 309.042969 327.917969 312.769531 323.089844 315.625 C 319.652344 317.78125 316.320312 318.992188 312.886719 319.714844 Z M 209.496094 268.292969 C 211.261719 267.921875 213.128906 268.042969 214.882812 268.59375 C 247.976562 279.367188 270.25 287.390625 285.015625 293.816406 L 285.472656 294.027344 C 304.425781 302.339844 310.054688 298.902344 311.871094 297.804688 C 313.511719 296.84375 314.464844 295.519531 314.851562 294.925781 C 318.859375 288.652344 313.90625 276.277344 312.089844 271.535156 L 311.929688 271.261719 C 305.425781 254.910156 295.546875 227.382812 284.054688 195.582031 C 282.886719 192.449219 283.382812 188.964844 285.164062 186.234375 C 299.507812 164.785156 310.488281 149.265625 318.859375 138.90625 L 319.191406 138.527344 C 332.210938 122.480469 330.359375 116.105469 329.828125 114.066406 C 329.179688 111.949219 327.964844 110.566406 327.945312 110.46875 C 322.976562 104.855469 309.585938 106.4375 304.578125 106.976562 L 304.28125 107.039062 C 288.472656 108.820312 264.210938 110.84375 234.078125 113.175781 C 230.441406 113.425781 226.949219 111.90625 224.796875 108.980469 C 207.527344 85.769531 192.414062 65.488281 183.300781 52.34375 L 183.140625 52.070312 C 180.230469 47.96875 172.578125 36.875 165.183594 36.789062 C 164.769531 36.773438 163.042969 36.832031 161.183594 37.734375 C 153.253906 41.445312 150.652344 56.84375 149.753906 61.847656 L 149.640625 62.28125 C 147.03125 77.167969 142.023438 98.195312 133.699219 128.3125 C 132.769531 131.683594 130.257812 134.363281 127.007812 135.457031 C 99.417969 145.039062 75.355469 153.367188 59.871094 158.15625 L 59.574219 158.21875 C 54.773438 159.738281 41.875 163.675781 39.582031 170.816406 C 39.507812 170.933594 38.953125 172.691406 39.308594 174.867188 C 40.511719 183.527344 54.300781 190.667969 58.886719 192.984375 L 59.339844 193.195312 C 72.4375 199.972656 90.375 210.75 115.714844 227.039062 C 118.542969 228.804688 120.300781 231.8125 120.492188 235.152344 C 122.585938 265.132812 124.175781 289.28125 124.699219 304.945312 L 124.761719 305.238281 C 124.90625 310.332031 125.449219 323.632812 131.640625 327.761719 C 132.808594 328.441406 134.148438 328.976562 135.527344 329.199219 C 144.167969 330.355469 154.675781 318.929688 158.179688 315.121094 L 158.507812 314.746094 C 168.257812 304.09375 182.925781 290.054688 204.640625 270.542969 C 206.066406 269.523438 207.730469 268.664062 209.496094 268.292969 Z M 327.199219 145.449219 Z M 327.199219 145.449219 " fill-opacity="1" fill-rule="nonzero"/></g></g></g></svg>